<svg width="0" height="0" class="hidden">
  <symbol xmlns="http://www.w3.org/2000/svg" viewBox="0 0 448 512" id="bars-solid">
    <path d="M0 96C0 78.3 14.3 64 32 64H416c17.7 0 32 14.3 32 32s-14.3 32-32 32H32C14.3 128 0 113.7 0 96zM0 256c0-17.7 14.3-32 32-32H416c17.7 0 32 14.3 32 32s-14.3 32-32 32H32c-17.7 0-32-14.3-32-32zM448 416c0 17.7-14.3 32-32 32H32c-17.7 0-32-14.3-32-32s14.3-32 32-32H416c17.7 0 32 14.3 32 32z"></path>
  </symbol>
  <symbol xmlns="http://www.w3.org/2000/svg" viewBox="0 0 512 512" id="bowl-food-solid">
    <path d="M0 192c0-35.3 28.7-64 64-64c.5 0 1.1 0 1.6 0C73 91.5 105.3 64 144 64c15 0 29 4.1 40.9 11.2C198.2 49.6 225.1 32 256 32s57.8 17.6 71.1 43.2C339 68.1 353 64 368 64c38.7 0 71 27.5 78.4 64c.5 0 1.1 0 1.6 0c35.3 0 64 28.7 64 64c0 11.7-3.1 22.6-8.6 32H8.6C3.1 214.6 0 203.7 0 192zm0 91.4C0 268.3 12.3 256 27.4 256H484.6c15.1 0 27.4 12.3 27.4 27.4c0 70.5-44.4 130.7-106.7 154.1L403.5 452c-2 16-15.6 28-31.8 28H140.2c-16.1 0-29.8-12-31.8-28l-1.8-14.4C44.4 414.1 0 353.9 0 283.4z"></path>
  </symbol>
  <symbol xmlns="http://www.w3.org/2000/svg" viewBox="0 0 512 512" id="car">
    <path d="M135.2 117.4L109.1 192H402.9l-26.1-74.6C372.3 104.6 360.2 96 346.6 96H165.4c-13.6 0-25.7 8.6-30.2 21.4zM39.6 196.8L74.8 96.3C88.3 57.8 124.6 32 165.4 32H346.6c40.8 0 77.1 25.8 90.6 64.3l35.2 100.5c23.2 9.6 39.6 32.5 39.6 59.2V400v48c0 17.7-14.3 32-32 32H448c-17.7 0-32-14.3-32-32V400H96v48c0 17.7-14.3 32-32 32H32c-17.7 0-32-14.3-32-32V400 256c0-26.7 16.4-49.6 39.6-59.2zM128 288c0-17.7-14.3-32-32-32s-32 14.3-32 32s14.3 32 32 32s32-14.3 32-32zm288 32c17.7 0 32-14.3 32-32s-14.3-32-32-32s-32 14.3-32 32s14.3 32 32 32z"></path>
  </symbol>
  <symbol xmlns="http://www.w3.org/2000/svg" viewBox="0 0 512 512" id="cat-solid">
    <path d="M288 192h17.1c22.1 38.3 63.5 64 110.9 64c11 0 21.8-1.4 32-4v4 32V480c0 17.7-14.3 32-32 32s-32-14.3-32-32V339.2L248 448h56c17.7 0 32 14.3 32 32s-14.3 32-32 32H160c-53 0-96-43-96-96V192.5c0-16.1-12-29.8-28-31.8l-7.9-1C10.5 157.6-1.9 141.6 .2 124s18.2-30 35.7-27.8l7.9 1c48 6 84.1 46.8 84.1 95.3v85.3c34.4-51.7 93.2-85.8 160-85.8zm160 26.5v0c-10 3.5-20.8 5.5-32 5.5c-28.4 0-54-12.4-71.6-32h0c-3.7-4.1-7-8.5-9.9-13.2C325.3 164 320 146.6 320 128v0V32 12 10.7C320 4.8 324.7 .1 330.6 0h.2c3.3 0 6.4 1.6 8.4 4.2l0 .1L352 21.3l27.2 36.3L384 64h64l4.8-6.4L480 21.3 492.8 4.3l0-.1c2-2.6 5.1-4.2 8.4-4.2h.2C507.3 .1 512 4.8 512 10.7V12 32v96c0 17.3-4.6 33.6-12.6 47.6c-11.3 19.8-29.6 35.2-51.4 42.9zM400 128c0-8.8-7.2-16-16-16s-16 7.2-16 16s7.2 16 16 16s16-7.2 16-16zm48 16c8.8 0 16-7.2 16-16s-7.2-16-16-16s-16 7.2-16 16s7.2 16 16 16z"></path>
  </symbol>
  <symbol version="1.1" id="cat" xmlns="http://www.w3.org/2000/svg" xmlns:xlink="http://www.w3.org/1999/xlink" x="0px" y="0px" xml:space="preserve" viewBox="0 0 49.989 49.989">
    <g>
      <g>
        <path d="M49.565,0.292c-0.274-0.273-0.682-0.363-1.044-0.234L35.948,4.565C32.614,2.878,28.88,1.989,25.12,1.989
			c-3.8,0-7.57,0.908-10.933,2.629l-12.72-4.56c-0.363-0.129-0.77-0.039-1.044,0.234C0.15,0.566,0.059,0.973,0.189,1.337
			l4.387,12.237C2.313,17.312,1.12,21.593,1.12,25.989c0,13.233,10.766,24,24,24c13.233,0,24-10.767,24-24
			c0-4.503-1.249-8.873-3.615-12.672L49.8,1.337C49.93,0.973,49.839,0.566,49.565,0.292z M43.457,13.103
			c-0.105,0.295-0.067,0.622,0.104,0.884c2.328,3.57,3.559,7.721,3.559,12.002c0,12.131-9.869,22-22,22s-22-9.869-22-22
			c0-4.181,1.177-8.248,3.405-11.763c0.165-0.261,0.201-0.582,0.097-0.873L2.786,2.656l11.14,3.993
			c0.267,0.095,0.561,0.073,0.81-0.061c3.171-1.7,6.762-2.6,10.384-2.6c3.584,0,7.142,0.881,10.287,2.549
			c0.248,0.132,0.541,0.152,0.806,0.058l10.99-3.94L43.457,13.103z"></path>
        <circle cx="16.13" cy="21.999" r="2"></circle>
        <circle cx="34.13" cy="21.999" r="2"></circle>
        <path d="M34.13,33.999c0,2.206-1.794,4-4,4s-4-1.794-4-4v-0.081c2.279-0.372,4-1.987,4-3.919c0-2.206-2.243-4-5-4s-5,1.794-5,4
			c0,1.932,1.721,3.547,4,3.919v0.081c0,2.206-1.794,4-4,4s-4-1.794-4-4v-1h-2v1c0,3.309,2.691,6,6,6c2.086,0,3.924-1.071,5-2.69
			c1.076,1.62,2.914,2.69,5,2.69c3.309,0,6-2.691,6-6v-1h-2V33.999z M22.13,29.999c0-1.084,1.374-2,3-2s3,0.916,3,2s-1.374,2-3,2
			S22.13,31.083,22.13,29.999z"></path>
      </g>
    </g>
    <g></g>
    <g></g>
    <g></g>
    <g></g>
    <g></g>
    <g></g>
    <g></g>
    <g></g>
    <g></g>
    <g></g>
    <g></g>
    <g></g>
    <g></g>
    <g></g>
    <g></g>
  </symbol>
  <symbol xmlns="http://www.w3.org/2000/svg" viewBox="0 0 512 512" id="circle-chevron-down-solid">
    <path d="M256 0C114.6 0 0 114.6 0 256S114.6 512 256 512s256-114.6 256-256S397.4 0 256 0zM135 241c-9.4-9.4-9.4-24.6 0-33.9s24.6-9.4 33.9 0l87 87 87-87c9.4-9.4 24.6-9.4 33.9 0s9.4 24.6 0 33.9L273 345c-9.4 9.4-24.6 9.4-33.9 0L135 241z"></path>
  </symbol>
  <symbol xmlns="http://www.w3.org/2000/svg" viewBox="0 0 512 512" id="comment-regular">
    <path d="M256 32C114.6 32 .0272 125.1 .0272 240c0 47.63 19.91 91.25 52.91 126.2c-14.88 39.5-45.87 72.88-46.37 73.25c-6.625 7-8.375 17.25-4.625 26C5.818 474.2 14.38 480 24 480c61.5 0 109.1-25.75 139.1-46.25C191.1 442.8 223.3 448 256 448c141.4 0 255.1-93.13 255.1-208S397.4 32 256 32zM256.1 400c-26.75 0-53.12-4.125-78.38-12.12l-22.75-7.125l-19.5 13.75c-14.25 10.12-33.88 21.38-57.5 29c7.375-12.12 14.37-25.75 19.88-40.25l10.62-28l-20.62-21.87C69.82 314.1 48.07 282.2 48.07 240c0-88.25 93.25-160 208-160s208 71.75 208 160S370.8 400 256.1 400z"></path>
  </symbol>
  <symbol xmlns="http://www.w3.org/2000/svg" viewBox="0 0 640 512" id="dumbbell-solid">
    <path d="M112 96c0-17.7 14.3-32 32-32h16c17.7 0 32 14.3 32 32V224v64V416c0 17.7-14.3 32-32 32H144c-17.7 0-32-14.3-32-32V384H64c-17.7 0-32-14.3-32-32V288c-17.7 0-32-14.3-32-32s14.3-32 32-32V160c0-17.7 14.3-32 32-32h48V96zm416 0v32h48c17.7 0 32 14.3 32 32v64c17.7 0 32 14.3 32 32s-14.3 32-32 32v64c0 17.7-14.3 32-32 32H528v32c0 17.7-14.3 32-32 32H480c-17.7 0-32-14.3-32-32V288 224 96c0-17.7 14.3-32 32-32h16c17.7 0 32 14.3 32 32zM416 224v64H224V224H416z"></path>
  </symbol>
  <symbol xmlns="http://www.w3.org/2000/svg" viewBox="0 0 512 512" id="film">
    <path d="M0 96C0 60.7 28.7 32 64 32H448c35.3 0 64 28.7 64 64V416c0 35.3-28.7 64-64 64H64c-35.3 0-64-28.7-64-64V96zM48 368v32c0 8.8 7.2 16 16 16H96c8.8 0 16-7.2 16-16V368c0-8.8-7.2-16-16-16H64c-8.8 0-16 7.2-16 16zm368-16c-8.8 0-16 7.2-16 16v32c0 8.8 7.2 16 16 16h32c8.8 0 16-7.2 16-16V368c0-8.8-7.2-16-16-16H416zM48 240v32c0 8.8 7.2 16 16 16H96c8.8 0 16-7.2 16-16V240c0-8.8-7.2-16-16-16H64c-8.8 0-16 7.2-16 16zm368-16c-8.8 0-16 7.2-16 16v32c0 8.8 7.2 16 16 16h32c8.8 0 16-7.2 16-16V240c0-8.8-7.2-16-16-16H416zM48 112v32c0 8.8 7.2 16 16 16H96c8.8 0 16-7.2 16-16V112c0-8.8-7.2-16-16-16H64c-8.8 0-16 7.2-16 16zM416 96c-8.8 0-16 7.2-16 16v32c0 8.8 7.2 16 16 16h32c8.8 0 16-7.2 16-16V112c0-8.8-7.2-16-16-16H416zM160 128v64c0 17.7 14.3 32 32 32H320c17.7 0 32-14.3 32-32V128c0-17.7-14.3-32-32-32H192c-17.7 0-32 14.3-32 32zm32 160c-17.7 0-32 14.3-32 32v64c0 17.7 14.3 32 32 32H320c17.7 0 32-14.3 32-32V320c0-17.7-14.3-32-32-32H192z"></path>
  </symbol>
  <symbol xmlns="http://www.w3.org/2000/svg" viewBox="0 0 512 512" id="music">
    <path d="M512 256c0 141.4-114.6 256-256 256S0 397.4 0 256S114.6 0 256 0S512 114.6 512 256zM256 224c17.7 0 32 14.3 32 32s-14.3 32-32 32s-32-14.3-32-32s14.3-32 32-32zm-96 32c0 53 43 96 96 96s96-43 96-96s-43-96-96-96s-96 43-96 96zM96 240c0-35 17.5-71.1 45.2-98.8S205 96 240 96c8.8 0 16-7.2 16-16s-7.2-16-16-16c-45.4 0-89.2 22.3-121.5 54.5S64 194.6 64 240c0 8.8 7.2 16 16 16s16-7.2 16-16z"></path>
  </symbol>
  <symbol xmlns="http://www.w3.org/2000/svg" viewBox="0 0 448 512" id="person-running-solid">
    <path d="M336 48c0-26.5-21.5-48-48-48s-48 21.5-48 48s21.5 48 48 48s48-21.5 48-48zM141.7 175.5c9.9-9.9 23.4-15.5 37.5-15.5c1.9 0 3.8 .1 5.6 .3L153.6 254c-9.3 28 1.7 58.8 26.8 74.5l86.2 53.9-25.4 88.8c-4.9 17 5 34.7 22 39.6s34.7-5 39.6-22l28.7-100.4c5.9-20.6-2.6-42.6-20.7-53.9L254 299l30.9-82.4 5.1 12.3C305 264.7 339.9 288 378.7 288H400c17.7 0 32-14.3 32-32s-14.3-32-32-32H378.7c-12.9 0-24.6-7.8-29.5-19.7l-6.3-15c-14.6-35.1-44.1-61.9-80.5-73.1l-48.7-15c-11.1-3.4-22.7-5.2-34.4-5.2c-31 0-60.8 12.3-82.7 34.3L73.4 153.4c-12.5 12.5-12.5 32.8 0 45.3s32.8 12.5 45.3 0l23.1-23.1zM107.2 352H48c-17.7 0-32 14.3-32 32s14.3 32 32 32h69.6c19 0 36.2-11.2 43.9-28.5L173 361.6l-9.5-6c-17.5-10.9-30.5-26.8-37.9-44.9L107.2 352z"></path>
  </symbol>
  <symbol xmlns="http://www.w3.org/2000/svg" viewBox="0 0 576 512" id="person-walking-luggage-solid">
    <path d="M432 96c26.5 0 48-21.5 48-48s-21.5-48-48-48s-48 21.5-48 48s21.5 48 48 48zM347.7 200.5c1-.4 1.9-.8 2.9-1.2l-16.9 63.5c-5.6 21.1-.1 43.6 14.7 59.7l70.7 77.1 22 88.1c4.3 17.1 21.7 27.6 38.8 23.3s27.6-21.7 23.3-38.8l-23-92.1c-1.9-7.8-5.8-14.9-11.2-20.8l-49.5-54 19.3-65.5 9.6 23c4.4 10.6 12.5 19.3 22.8 24.5l26.7 13.3c15.8 7.9 35 1.5 42.9-14.3s1.5-35-14.3-42.9L505 232.7l-15.3-36.8C472.5 154.8 432.3 128 387.7 128c-22.8 0-45.3 4.8-66.1 14l-8 3.5c-32.9 14.6-58.1 42.4-69.4 76.5l-2.6 7.8c-5.6 16.8 3.5 34.9 20.2 40.5s34.9-3.5 40.5-20.2l2.6-7.8c5.7-17.1 18.3-30.9 34.7-38.2l8-3.5zm-30 135.1l-25 62.4-59.4 59.4c-12.5 12.5-12.5 32.8 0 45.3s32.8 12.5 45.3 0L340.3 441c4.6-4.6 8.2-10.1 10.6-16.1l14.5-36.2-40.7-44.4c-2.5-2.7-4.8-5.6-7-8.6zM256 274.1c-7.7-4.4-17.4-1.8-21.9 5.9l-32 55.4L147.7 304c-15.3-8.8-34.9-3.6-43.7 11.7L40 426.6c-8.8 15.3-3.6 34.9 11.7 43.7l55.4 32c15.3 8.8 34.9 3.6 43.7-11.7l64-110.9c1.5-2.6 2.6-5.2 3.3-8L261.9 296c4.4-7.7 1.8-17.4-5.9-21.9z"></path>
  </symbol>
  <symbol viewBox="0 0 0 0" id="sprite">
    <symbol xmlns="http://www.w3.org/2000/svg" viewBox="0 0 640 512" id="dumbbell-solid">
      <path d="M112 96c0-17.7 14.3-32 32-32h16c17.7 0 32 14.3 32 32V224v64V416c0 17.7-14.3 32-32 32H144c-17.7 0-32-14.3-32-32V384H64c-17.7 0-32-14.3-32-32V288c-17.7 0-32-14.3-32-32s14.3-32 32-32V160c0-17.7 14.3-32 32-32h48V96zm416 0v32h48c17.7 0 32 14.3 32 32v64c17.7 0 32 14.3 32 32s-14.3 32-32 32v64c0 17.7-14.3 32-32 32H528v32c0 17.7-14.3 32-32 32H480c-17.7 0-32-14.3-32-32V288 224 96c0-17.7 14.3-32 32-32h16c17.7 0 32 14.3 32 32zM416 224v64H224V224H416z"></path>
    </symbol>
    <symbol xmlns="http://www.w3.org/2000/svg" viewBox="0 0 448 512" id="person-running-solid">
      <path d="M336 48c0-26.5-21.5-48-48-48s-48 21.5-48 48s21.5 48 48 48s48-21.5 48-48zM141.7 175.5c9.9-9.9 23.4-15.5 37.5-15.5c1.9 0 3.8 .1 5.6 .3L153.6 254c-9.3 28 1.7 58.8 26.8 74.5l86.2 53.9-25.4 88.8c-4.9 17 5 34.7 22 39.6s34.7-5 39.6-22l28.7-100.4c5.9-20.6-2.6-42.6-20.7-53.9L254 299l30.9-82.4 5.1 12.3C305 264.7 339.9 288 378.7 288H400c17.7 0 32-14.3 32-32s-14.3-32-32-32H378.7c-12.9 0-24.6-7.8-29.5-19.7l-6.3-15c-14.6-35.1-44.1-61.9-80.5-73.1l-48.7-15c-11.1-3.4-22.7-5.2-34.4-5.2c-31 0-60.8 12.3-82.7 34.3L73.4 153.4c-12.5 12.5-12.5 32.8 0 45.3s32.8 12.5 45.3 0l23.1-23.1zM107.2 352H48c-17.7 0-32 14.3-32 32s14.3 32 32 32h69.6c19 0 36.2-11.2 43.9-28.5L173 361.6l-9.5-6c-17.5-10.9-30.5-26.8-37.9-44.9L107.2 352z"></path>
    </symbol>
    <symbol xmlns="http://www.w3.org/2000/svg" viewBox="0 0 512 512" id="bowl-food-solid">
      <path d="M0 192c0-35.3 28.7-64 64-64c.5 0 1.1 0 1.6 0C73 91.5 105.3 64 144 64c15 0 29 4.1 40.9 11.2C198.2 49.6 225.1 32 256 32s57.8 17.6 71.1 43.2C339 68.1 353 64 368 64c38.7 0 71 27.5 78.4 64c.5 0 1.1 0 1.6 0c35.3 0 64 28.7 64 64c0 11.7-3.1 22.6-8.6 32H8.6C3.1 214.6 0 203.7 0 192zm0 91.4C0 268.3 12.3 256 27.4 256H484.6c15.1 0 27.4 12.3 27.4 27.4c0 70.5-44.4 130.7-106.7 154.1L403.5 452c-2 16-15.6 28-31.8 28H140.2c-16.1 0-29.8-12-31.8-28l-1.8-14.4C44.4 414.1 0 353.9 0 283.4z"></path>
    </symbol>
    <symbol xmlns="http://www.w3.org/2000/svg" viewBox="0 0 512 512" id="cat-solid">
      <path d="M288 192h17.1c22.1 38.3 63.5 64 110.9 64c11 0 21.8-1.4 32-4v4 32V480c0 17.7-14.3 32-32 32s-32-14.3-32-32V339.2L248 448h56c17.7 0 32 14.3 32 32s-14.3 32-32 32H160c-53 0-96-43-96-96V192.5c0-16.1-12-29.8-28-31.8l-7.9-1C10.5 157.6-1.9 141.6 .2 124s18.2-30 35.7-27.8l7.9 1c48 6 84.1 46.8 84.1 95.3v85.3c34.4-51.7 93.2-85.8 160-85.8zm160 26.5v0c-10 3.5-20.8 5.5-32 5.5c-28.4 0-54-12.4-71.6-32h0c-3.7-4.1-7-8.5-9.9-13.2C325.3 164 320 146.6 320 128v0V32 12 10.7C320 4.8 324.7 .1 330.6 0h.2c3.3 0 6.4 1.6 8.4 4.2l0 .1L352 21.3l27.2 36.3L384 64h64l4.8-6.4L480 21.3 492.8 4.3l0-.1c2-2.6 5.1-4.2 8.4-4.2h.2C507.3 .1 512 4.8 512 10.7V12 32v96c0 17.3-4.6 33.6-12.6 47.6c-11.3 19.8-29.6 35.2-51.4 42.9zM400 128c0-8.8-7.2-16-16-16s-16 7.2-16 16s7.2 16 16 16s16-7.2 16-16zm48 16c8.8 0 16-7.2 16-16s-7.2-16-16-16s-16 7.2-16 16s7.2 16 16 16z"></path>
    </symbol>
    <symbol xmlns="http://www.w3.org/2000/svg" viewBox="0 0 448 512" id="bars-solid">
      <path d="M0 96C0 78.3 14.3 64 32 64H416c17.7 0 32 14.3 32 32s-14.3 32-32 32H32C14.3 128 0 113.7 0 96zM0 256c0-17.7 14.3-32 32-32H416c17.7 0 32 14.3 32 32s-14.3 32-32 32H32c-17.7 0-32-14.3-32-32zM448 416c0 17.7-14.3 32-32 32H32c-17.7 0-32-14.3-32-32s14.3-32 32-32H416c17.7 0 32 14.3 32 32z"></path>
    </symbol>
    <symbol xmlns="http://www.w3.org/2000/svg" viewBox="0 0 512 512" id="comment-regular">
      <path d="M256 32C114.6 32 .0272 125.1 .0272 240c0 47.63 19.91 91.25 52.91 126.2c-14.88 39.5-45.87 72.88-46.37 73.25c-6.625 7-8.375 17.25-4.625 26C5.818 474.2 14.38 480 24 480c61.5 0 109.1-25.75 139.1-46.25C191.1 442.8 223.3 448 256 448c141.4 0 255.1-93.13 255.1-208S397.4 32 256 32zM256.1 400c-26.75 0-53.12-4.125-78.38-12.12l-22.75-7.125l-19.5 13.75c-14.25 10.12-33.88 21.38-57.5 29c7.375-12.12 14.37-25.75 19.88-40.25l10.62-28l-20.62-21.87C69.82 314.1 48.07 282.2 48.07 240c0-88.25 93.25-160 208-160s208 71.75 208 160S370.8 400 256.1 400z"></path>
    </symbol>
    <symbol xmlns="http://www.w3.org/2000/svg" viewBox="0 0 384 512" id="thumbtack">
      <path d="M32 32C32 14.3 46.3 0 64 0H320c17.7 0 32 14.3 32 32s-14.3 32-32 32H290.5l11.4 148.2c36.7 19.9 65.7 53.2 79.5 94.7l1 3c3.3 9.8 1.6 20.5-4.4 28.8s-15.7 13.3-26 13.3H32c-10.3 0-19.9-4.9-26-13.3s-7.7-19.1-4.4-28.8l1-3c13.8-41.5 42.8-74.8 79.5-94.7L93.5 64H64C46.3 64 32 49.7 32 32zM160 384h64v96c0 17.7-14.3 32-32 32s-32-14.3-32-32V384z"></path>
    </symbol>
    <symbol xmlns="http://www.w3.org/2000/svg" viewBox="0 0 576 512" id="person-walking-luggage-solid">
      <path d="M432 96c26.5 0 48-21.5 48-48s-21.5-48-48-48s-48 21.5-48 48s21.5 48 48 48zM347.7 200.5c1-.4 1.9-.8 2.9-1.2l-16.9 63.5c-5.6 21.1-.1 43.6 14.7 59.7l70.7 77.1 22 88.1c4.3 17.1 21.7 27.6 38.8 23.3s27.6-21.7 23.3-38.8l-23-92.1c-1.9-7.8-5.8-14.9-11.2-20.8l-49.5-54 19.3-65.5 9.6 23c4.4 10.6 12.5 19.3 22.8 24.5l26.7 13.3c15.8 7.9 35 1.5 42.9-14.3s1.5-35-14.3-42.9L505 232.7l-15.3-36.8C472.5 154.8 432.3 128 387.7 128c-22.8 0-45.3 4.8-66.1 14l-8 3.5c-32.9 14.6-58.1 42.4-69.4 76.5l-2.6 7.8c-5.6 16.8 3.5 34.9 20.2 40.5s34.9-3.5 40.5-20.2l2.6-7.8c5.7-17.1 18.3-30.9 34.7-38.2l8-3.5zm-30 135.1l-25 62.4-59.4 59.4c-12.5 12.5-12.5 32.8 0 45.3s32.8 12.5 45.3 0L340.3 441c4.6-4.6 8.2-10.1 10.6-16.1l14.5-36.2-40.7-44.4c-2.5-2.7-4.8-5.6-7-8.6zM256 274.1c-7.7-4.4-17.4-1.8-21.9 5.9l-32 55.4L147.7 304c-15.3-8.8-34.9-3.6-43.7 11.7L40 426.6c-8.8 15.3-3.6 34.9 11.7 43.7l55.4 32c15.3 8.8 34.9 3.6 43.7-11.7l64-110.9c1.5-2.6 2.6-5.2 3.3-8L261.9 296c4.4-7.7 1.8-17.4-5.9-21.9z"></path>
    </symbol>
    <symbol xmlns="http://www.w3.org/2000/svg" viewBox="0 0 512 512" id="car">
      <path d="M135.2 117.4L109.1 192H402.9l-26.1-74.6C372.3 104.6 360.2 96 346.6 96H165.4c-13.6 0-25.7 8.6-30.2 21.4zM39.6 196.8L74.8 96.3C88.3 57.8 124.6 32 165.4 32H346.6c40.8 0 77.1 25.8 90.6 64.3l35.2 100.5c23.2 9.6 39.6 32.5 39.6 59.2V400v48c0 17.7-14.3 32-32 32H448c-17.7 0-32-14.3-32-32V400H96v48c0 17.7-14.3 32-32 32H32c-17.7 0-32-14.3-32-32V400 256c0-26.7 16.4-49.6 39.6-59.2zM128 288c0-17.7-14.3-32-32-32s-32 14.3-32 32s14.3 32 32 32s32-14.3 32-32zm288 32c17.7 0 32-14.3 32-32s-14.3-32-32-32s-32 14.3-32 32s14.3 32 32 32z"></path>
    </symbol>
    <symbol xmlns="http://www.w3.org/2000/svg" viewBox="0 0 512 512" id="music">
      <path d="M512 256c0 141.4-114.6 256-256 256S0 397.4 0 256S114.6 0 256 0S512 114.6 512 256zM256 224c17.7 0 32 14.3 32 32s-14.3 32-32 32s-32-14.3-32-32s14.3-32 32-32zm-96 32c0 53 43 96 96 96s96-43 96-96s-43-96-96-96s-96 43-96 96zM96 240c0-35 17.5-71.1 45.2-98.8S205 96 240 96c8.8 0 16-7.2 16-16s-7.2-16-16-16c-45.4 0-89.2 22.3-121.5 54.5S64 194.6 64 240c0 8.8 7.2 16 16 16s16-7.2 16-16z"></path>
    </symbol>
    <symbol xmlns="http://www.w3.org/2000/svg" viewBox="0 0 512 512" id="film">
      <path d="M0 96C0 60.7 28.7 32 64 32H448c35.3 0 64 28.7 64 64V416c0 35.3-28.7 64-64 64H64c-35.3 0-64-28.7-64-64V96zM48 368v32c0 8.8 7.2 16 16 16H96c8.8 0 16-7.2 16-16V368c0-8.8-7.2-16-16-16H64c-8.8 0-16 7.2-16 16zm368-16c-8.8 0-16 7.2-16 16v32c0 8.8 7.2 16 16 16h32c8.8 0 16-7.2 16-16V368c0-8.8-7.2-16-16-16H416zM48 240v32c0 8.8 7.2 16 16 16H96c8.8 0 16-7.2 16-16V240c0-8.8-7.2-16-16-16H64c-8.8 0-16 7.2-16 16zm368-16c-8.8 0-16 7.2-16 16v32c0 8.8 7.2 16 16 16h32c8.8 0 16-7.2 16-16V240c0-8.8-7.2-16-16-16H416zM48 112v32c0 8.8 7.2 16 16 16H96c8.8 0 16-7.2 16-16V112c0-8.8-7.2-16-16-16H64c-8.8 0-16 7.2-16 16zM416 96c-8.8 0-16 7.2-16 16v32c0 8.8 7.2 16 16 16h32c8.8 0 16-7.2 16-16V112c0-8.8-7.2-16-16-16H416zM160 128v64c0 17.7 14.3 32 32 32H320c17.7 0 32-14.3 32-32V128c0-17.7-14.3-32-32-32H192c-17.7 0-32 14.3-32 32zm32 160c-17.7 0-32 14.3-32 32v64c0 17.7 14.3 32 32 32H320c17.7 0 32-14.3 32-32V320c0-17.7-14.3-32-32-32H192z"></path>
    </symbol>
    <symbol xmlns="http://www.w3.org/2000/svg" viewBox="0 0 512 512" id="tick">
      <path d="M470.6 105.4c12.5 12.5 12.5 32.8 0 45.3l-256 256c-12.5 12.5-32.8 12.5-45.3 0l-128-128c-12.5-12.5-12.5-32.8 0-45.3s32.8-12.5 45.3 0L192 338.7 425.4 105.4c12.5-12.5 32.8-12.5 45.3 0z"></path>
    </symbol>
  </symbol>
  <symbol xmlns="http://www.w3.org/2000/svg" viewBox="0 0 384 512" id="thumbtack">
    <path d="M32 32C32 14.3 46.3 0 64 0H320c17.7 0 32 14.3 32 32s-14.3 32-32 32H290.5l11.4 148.2c36.7 19.9 65.7 53.2 79.5 94.7l1 3c3.3 9.8 1.6 20.5-4.4 28.8s-15.7 13.3-26 13.3H32c-10.3 0-19.9-4.9-26-13.3s-7.7-19.1-4.4-28.8l1-3c13.8-41.5 42.8-74.8 79.5-94.7L93.5 64H64C46.3 64 32 49.7 32 32zM160 384h64v96c0 17.7-14.3 32-32 32s-32-14.3-32-32V384z"></path>
  </symbol>
  <symbol xmlns="http://www.w3.org/2000/svg" viewBox="0 0 512 512" id="tick">
    <path d="M470.6 105.4c12.5 12.5 12.5 32.8 0 45.3l-256 256c-12.5 12.5-32.8 12.5-45.3 0l-128-128c-12.5-12.5-12.5-32.8 0-45.3s32.8-12.5 45.3 0L192 338.7 425.4 105.4c12.5-12.5 32.8-12.5 45.3 0z"></path>
  </symbol>
</svg>